<svg width="19" height="19" viewBox="0 0 19 19" fill="none" xmlns="http://www.w3.org/2000/svg">
<path d="M3.16675 15.0417V3.95833C3.16675 3.08388 3.87563 2.375 4.75008 2.375H15.3584C15.6208 2.375 15.8334 2.58767 15.8334 2.85V13.2322" stroke="#00404E" stroke-width="1.5" stroke-linecap="round"/>
<path d="M7.91675 11.0833C7.91675 11.0833 8.62925 8.61523 10.2917 7.125" stroke="#00404E" stroke-width="1.5" stroke-linecap="round" stroke-linejoin="round"/>
<path d="M10.1351 9.83604L10.0286 9.8461C8.68922 9.97189 7.49634 8.98864 7.36424 7.64984C7.23214 6.31104 8.21082 5.12371 9.55024 4.99786L11.9138 4.77577C12.0655 4.76152 12.2005 4.87283 12.2155 5.0244L12.4171 7.06763C12.555 8.46519 11.5333 9.70471 10.1351 9.83604Z" stroke="#00404E" stroke-width="1.5" stroke-linecap="round" stroke-linejoin="round"/>
<path d="M4.75 13.4583H15.8333" stroke="#00404E" stroke-width="1.5" stroke-linecap="round"/>
<path d="M4.75 16.625H15.8333" stroke="#00404E" stroke-width="1.5" stroke-linecap="round"/>
<path d="M4.75008 16.625C3.87563 16.625 3.16675 15.9161 3.16675 15.0416C3.16675 14.1672 3.87563 13.4583 4.75008 13.4583" stroke="#00404E" stroke-width="1.5" stroke-linecap="round" stroke-linejoin="round"/>
</svg>
