<svg width="19" height="19" viewBox="0 0 19 19" fill="none" xmlns="http://www.w3.org/2000/svg">
<path d="M6.72925 3.16669H4.75008C3.87563 3.16669 3.16675 3.87557 3.16675 4.75002V15.8334C3.16675 16.7078 3.87563 17.4167 4.75008 17.4167H9.50008" stroke="white" stroke-width="1.5" stroke-linecap="round"/>
<path d="M12.2708 3.16669H14.2499C15.1244 3.16669 15.8333 3.87557 15.8333 4.75002V11.875" stroke="white" stroke-width="1.5" stroke-linecap="round"/>
<path d="M6.33325 5.06669V3.56252C6.33325 3.34391 6.51047 3.16669 6.72909 3.16669C6.9477 3.16669 7.12826 2.98939 7.16571 2.774C7.283 2.09929 7.73766 0.791687 9.49992 0.791687C11.2622 0.791687 11.7168 2.09929 11.8341 2.774C11.8716 2.98939 12.0522 3.16669 12.2708 3.16669C12.4893 3.16669 12.6666 3.34391 12.6666 3.56252V5.06669C12.6666 5.32902 12.4539 5.54169 12.1916 5.54169H6.80825C6.54592 5.54169 6.33325 5.32902 6.33325 5.06669Z" stroke="white" stroke-width="1.5" stroke-linecap="round"/>
<path d="M12.2708 16.2292L13.8541 17.8125L17.8124 13.8542" stroke="white" stroke-width="1.5" stroke-linecap="round" stroke-linejoin="round"/>
</svg>
