<svg width="18" height="18" viewBox="0 0 18 18" fill="none" xmlns="http://www.w3.org/2000/svg">
<path d="M18 8.95842C18 8.2795 17.9403 7.62669 17.8296 7H9V10.7079H14.0455C13.8238 11.9004 13.1591 12.9101 12.1619 13.589V16H15.2045C16.9773 14.3288 18 11.8743 18 8.95842Z" fill="#4285F4"/>
<path d="M9.03973 18C11.4713 18 13.5099 17.2292 15 15.9079L12.0772 13.7292C11.2748 14.2483 10.2514 14.5629 9.03973 14.5629C6.69825 14.5629 4.70877 13.0449 3.99649 11H1V13.2337C2.48183 16.0573 5.5193 18 9.03973 18Z" fill="#34A853"/>
<path d="M4 10.6958C3.81816 10.1603 3.71071 9.59228 3.71071 9.00003C3.71071 8.40772 3.81816 7.83974 4 7.30425V5H0.975221C0.355389 6.20083 0 7.55579 0 9.00003C0 10.4442 0.355389 11.7992 0.975221 13L3.33058 11.1988L4 10.6958Z" fill="#FBBC05"/>
<path d="M9.0023 3.44108C10.3224 3.44108 11.4959 3.88102 12.4331 4.7295L15 2.25476C13.4436 0.856337 11.4226 0 9.0023 0C5.49826 0 2.47493 1.94054 1 4.76882L3.98254 7C4.69151 4.95737 6.67172 3.44108 9.0023 3.44108Z" fill="#EA4335"/>
</svg>
